<svg width="170" height="24" viewBox="0 0 170 24" fill="none" xmlns="http://www.w3.org/2000/svg">
<path d="M169.481 22.97L165.644 15.5408C166.712 14.8326 167.511 13.9056 168.039 12.7725C168.567 11.6137 168.824 10.2876 168.824 8.76824C168.824 6.03863 168.051 3.96567 166.494 2.56223C164.936 1.1588 162.489 0.450644 159.129 0.450644H151.429C151.094 0.450644 150.927 0.618026 150.927 0.95279V23.0601C150.927 23.3948 151.094 23.5622 151.429 23.5622H156.206C156.541 23.5622 156.708 23.3948 156.708 23.0601V17.073H159.129C159.502 17.073 159.876 17.073 160.223 17.0472L163.146 23.1888C163.249 23.4464 163.442 23.5622 163.712 23.5622H169.094C169.288 23.5622 169.416 23.5107 169.506 23.4077C169.584 23.279 169.584 23.1373 169.481 22.97ZM161.845 11.382C161.189 11.9099 160.262 12.1674 159.051 12.1674H156.721V5.3691H159.051C160.262 5.3691 161.202 5.62661 161.845 6.15451C162.515 6.6824 162.85 7.54506 162.85 8.76824C162.85 9.99142 162.515 10.8541 161.845 11.382ZM140.408 0.83691C140.318 0.579399 140.137 0.463519 139.841 0.463519H135.876C135.605 0.463519 135.412 0.592275 135.309 0.83691L126.219 23.0086C126.155 23.1502 126.155 23.2918 126.219 23.4206C126.296 23.5236 126.438 23.5751 126.631 23.5751H131.794C132.09 23.5751 132.27 23.4335 132.361 23.1631L133.622 19.6094H142.017L143.279 23.1631C143.369 23.4335 143.549 23.5751 143.846 23.5751H149.124C149.292 23.5751 149.408 23.5236 149.472 23.4206C149.562 23.2918 149.562 23.1631 149.498 23.0086L140.408 0.83691ZM135.283 14.8197L137.768 7.69957L140.318 14.8197H135.283ZM129.592 5.49785V0.95279C129.592 0.618026 129.425 0.450644 129.09 0.450644H109.97C109.661 0.450644 109.494 0.618026 109.494 0.95279V5.48498C109.494 5.79399 109.648 5.96137 109.97 5.96137H116.601V23.0601C116.601 23.3948 116.768 23.5622 117.103 23.5622H121.983C122.318 23.5622 122.485 23.3948 122.485 23.0601V5.96137H129.09C129.425 5.96137 129.592 5.80687 129.592 5.48498V5.49785ZM103.094 9.70816L101.369 9.14163C100.197 8.74249 99.3605 8.3691 98.8841 8.00858C98.4077 7.63519 98.1631 7.19743 98.1631 6.72103C98.1631 6.24464 98.3691 5.85837 98.794 5.58798C99.2189 5.3176 99.7339 5.17597 100.365 5.17597C100.957 5.17597 101.472 5.3176 101.936 5.61373C102.412 5.88412 102.824 6.43777 103.159 7.24893C103.288 7.54506 103.494 7.64807 103.79 7.55794L108.386 6.33476C108.747 6.24464 108.85 6.03863 108.695 5.70386C108.051 3.73391 106.983 2.29185 105.515 1.39056C104.073 0.463519 102.386 0 100.455 0C98.9227 0 97.5322 0.309013 96.2704 0.914163C95.0343 1.50644 94.0429 2.3176 93.2833 3.37339C92.5494 4.42918 92.1888 5.63948 92.1888 7.03004C92.1888 8.75537 92.7039 10.1846 93.7339 11.3433C94.7768 12.5021 96.1931 13.3777 97.9442 13.9828L100.339 14.8326C101.305 15.1674 102.026 15.515 102.515 15.8755C103.017 16.2103 103.275 16.6738 103.275 17.2661C103.275 17.794 103.03 18.1931 102.554 18.4635C102.09 18.721 101.485 18.8369 100.725 18.8369C99.7983 18.8369 99.0386 18.6567 98.4335 18.2961C97.8412 17.9227 97.3777 17.3047 97.0172 16.4678C96.8884 16.1974 96.6824 16.0944 96.3863 16.1588L92.0086 17.2275C91.6738 17.3305 91.5579 17.5365 91.6609 17.8584C92.3047 19.8283 93.412 21.3476 94.9571 22.4292C96.5021 23.485 98.3691 24 100.558 24C102.258 24 103.751 23.7039 105.051 23.1245C106.352 22.5193 107.369 21.6824 108.103 20.6395C108.837 19.5708 109.197 18.3476 109.197 16.9828C109.197 15.0773 108.695 13.5579 107.691 12.4506C106.687 11.3176 105.155 10.4034 103.094 9.70816ZM90.5536 18.5021H80.3047V14.2146H89.0215C89.3562 14.2146 89.5236 14.0472 89.5236 13.7124V9.81116C89.5236 9.4764 89.3562 9.30901 89.0215 9.30901H80.3047V5.53648H90.1803C90.515 5.53648 90.6824 5.3691 90.6824 5.03434V0.95279C90.6824 0.618026 90.515 0.450644 90.1803 0.450644H74.9871C74.6524 0.450644 74.485 0.618026 74.485 0.95279V23.0601C74.485 23.3948 74.6524 23.5622 74.9871 23.5622H90.5536C90.8884 23.5622 91.0558 23.3948 91.0558 23.0601V18.9914C91.0558 18.6567 90.8884 18.4893 90.5536 18.4893V18.5021ZM64.8927 9.14163L71.9099 1.04292C72.0386 0.875537 72.0644 0.733906 72 0.630901C71.9614 0.502146 71.8326 0.437768 71.6266 0.437768H66.0644C65.8326 0.437768 65.6395 0.527897 65.4721 0.72103L57.9914 9.88841V0.95279C57.9914 0.618026 57.824 0.450644 57.4893 0.450644H52.6094C52.2747 0.450644 52.1073 0.618026 52.1073 0.95279V23.0601C52.1073 23.3948 52.2747 23.5622 52.6094 23.5622H57.4893C57.824 23.5622 57.9914 23.3948 57.9914 23.0601V17.073L60.9528 13.6738L66.2704 23.2146C66.3991 23.4464 66.5794 23.5622 66.8369 23.5622H72.4635C72.6695 23.5622 72.8112 23.5107 72.8755 23.4077C72.9399 23.279 72.9142 23.1373 72.8112 22.97L64.9185 9.14163H64.8927ZM41.5751 0.83691C41.4979 0.579399 41.3047 0.463519 41.0086 0.463519H37.0429C36.7725 0.463519 36.5794 0.592275 36.4764 0.83691L27.3863 23.0086C27.3219 23.1502 27.3219 23.2918 27.3863 23.4206C27.4635 23.5236 27.6052 23.5751 27.7983 23.5751H32.9614C33.2575 23.5751 33.4378 23.4335 33.5279 23.1631L34.7897 19.6094H43.1846L44.4464 23.1631C44.5365 23.4335 44.7167 23.5751 45.0129 23.5751H50.2918C50.4592 23.5751 50.5751 23.5236 50.6395 23.4206C50.7167 23.2918 50.7296 23.1631 50.6652 23.0086L41.5751 0.83691ZM36.4506 14.8197L38.9356 7.69957L41.485 14.8197H36.4506ZM25.4421 0.450644H20.4464C20.1888 0.450644 20.0086 0.566524 19.8798 0.798283L13.1202 12.3863L6.16738 0.798283C6.06438 0.566524 5.87124 0.450644 5.60086 0.450644H0.502146C0.167382 0.450644 0 0.618026 0 0.95279V23.0601C0 23.3948 0.167382 23.5622 0.502146 23.5622H5.12446C5.45923 23.5622 5.62661 23.3948 5.62661 23.0601V10.1588L13.1073 21.9142L20.3047 9.93991V23.073C20.3047 23.4077 20.4721 23.5751 20.8069 23.5751H25.4292C25.7639 23.5751 25.9313 23.4077 25.9313 23.073V0.95279C25.9313 0.618026 25.7639 0.450644 25.4292 0.450644H25.4421Z" fill="#212121" fill-opacity="0.88"/>
</svg>
